<svg width="248" height="72" viewBox="0 0 248 72" xmlns="http://www.w3.org/2000/svg"><title>Logo</title><desc>Created with Sketch.</desc><g fill="none"><g transform="translate(-42 -19) translate(42 19)"><rect fill="#D0021B" width="74" height="72" rx="4"/><path d="M41.5 31.5v-7.5h-8v7.5h-7.5v8h7.5v7.5h8v-7.5h7.5v-8h-7.5zM40.778 13.323c1.609.278 3.158.732 4.626 1.339l2.901-4.466 6.709 4.357-2.898 4.463c1.168 1.105 2.215 2.337 3.119 3.674l4.855-2.264 3.381 7.25-5.037 2.349c.345 1.493.538 3.044.562 4.635l5.559.781-1.113 7.922-5.774-.811c-.52 1.423-1.183 2.777-1.971 4.045l4.483 3.897-5.248 6.038-4.62-4.016c-1.146.872-2.379 1.634-3.685 2.271l1.721 6.003-7.69 2.205-1.743-6.077c-.632.055-1.271.082-1.917.082-.793 0-1.577-.042-2.348-.124l-1.754 6.119-7.69-2.205 1.777-6.197c-1.252-.641-2.434-1.399-3.532-2.259l-4.828 4.197-5.248-6.038 4.773-4.149c-.731-1.213-1.349-2.502-1.838-3.852l-6.196.871-1.113-7.922 6.004-.844c.027-1.504.205-2.97.519-4.386l-5.438-2.536 3.381-7.25 5.193 2.421c.858-1.292 1.848-2.488 2.952-3.569l-3.069-4.725 6.709-4.357 2.996 4.614c1.437-.624 2.954-1.099 4.531-1.405v-5.405h8v5.323zm-3.778 37.677c8.837 0 16-7.163 16-16s-7.163-16-16-16-16 7.163-16 16 7.163 16 16 16z" fill="#fff"/></g><path d="M80.985 36v-33.398h6.754v28.76h6.643v4.639h-13.396zm21.621-11.3h3.451l-1.688-12.395-1.763 12.395zm-8.461 11.3l7.218-33.398h5.975l7.199 33.398h-6.661l-1.373-7.144h-4.36l-1.299 7.144h-6.698zm28.728-19.501h1.93c.52 0 .965-.173 1.336-.52.371-.346.64-.785.807-1.317.167-.532.285-1.021.353-1.466.068-.445.102-.866.102-1.262s-.028-.804-.083-1.225c-.056-.421-.155-.888-.297-1.401s-.377-.934-.705-1.262c-.328-.328-.727-.492-1.197-.492h-2.245v8.943zm-6.754 19.501v-33.398h7.348c1.67 0 3.139.158 4.407.473 1.268.315 2.378.81 3.331 1.484.952.674 1.676 1.583 2.171 2.728.495 1.144.742 2.514.742 4.11 0 .693-.025 1.311-.074 1.855-.049.544-.164 1.166-.343 1.865-.179.699-.424 1.317-.733 1.855s-.755 1.067-1.336 1.586c-.581.52-1.268.952-2.06 1.299 2.004 6.358 3.748 11.739 5.232 16.143h-6.995l-3.822-15.382h-1.113v15.382h-6.754zm20.248 0v-33.398h13.935v4.639h-7.181v9.092h5.084v4.75h-5.084v10.279h7.181v4.639h-13.935zm15.777 0v-33.398h6.977c2.227 0 4.06.201 5.501.603 1.441.402 2.573 1.064 3.396 1.985.823.922 1.392 2.026 1.707 3.312.315 1.286.473 2.925.473 4.917v10.947c0 1.188-.037 2.223-.111 3.108-.074.884-.213 1.75-.417 2.598-.204.847-.482 1.565-.835 2.152-.353.588-.807 1.135-1.364 1.642-.557.507-1.228.909-2.013 1.206-.785.297-1.707.526-2.765.687-1.058.161-2.273.241-3.646.241h-6.902zm7.014-4.731c.643 0 1.15-.009 1.521-.028.371-.019.742-.065 1.113-.139.371-.074.643-.176.816-.306.173-.13.334-.319.482-.566.148-.247.244-.541.288-.881.043-.34.065-.764.065-1.271v-17.979c0-1.101-.328-1.831-.983-2.189-.656-.359-1.757-.544-3.303-.557v23.917zm13.587-6.253v-11.226c0-7.892 3.253-11.838 9.76-11.838 6.519 0 9.778 3.946 9.778 11.838v11.059c0 1.336-.099 2.57-.297 3.702-.198 1.132-.535 2.205-1.011 3.219-.476 1.014-1.082 1.877-1.818 2.588-.736.711-1.667 1.271-2.792 1.679-1.126.408-2.412.612-3.859.612-1.435 0-2.715-.201-3.841-.603-1.126-.402-2.053-.946-2.783-1.633s-1.333-1.528-1.809-2.523c-.476-.996-.816-2.056-1.021-3.182-.204-1.126-.306-2.356-.306-3.692zm12.784 1.521v-14.436c0-3.29-1.008-4.936-3.024-4.936-.606 0-1.119.152-1.54.455-.421.303-.73.717-.928 1.243-.198.526-.337 1.045-.417 1.559-.08.513-.121 1.073-.121 1.679v14.436c0 3.278 1.002 4.917 3.006 4.917 2.016 0 3.024-1.639 3.024-4.917zm-104.545 44.463v-33.398h13.935v4.639h-7.181v9.092h5.084v4.75h-5.084v10.279h7.181v4.639h-13.935zm14.218 0l5.399-17.274-5.437-16.124h6.42l3.136 9.982 3.377-9.982h6.271l-5.399 16.013 5.325 17.386h-6.364l-3.191-11.04-3.154 11.04h-6.383zm27.615-11.3h3.451l-1.688-12.395-1.763 12.395zm-8.461 11.3l7.218-33.398h5.975l7.199 33.398h-6.661l-1.373-7.144h-4.36l-1.299 7.144h-6.698zm21.974 0v-33.398h8.09l3.563 22.266 3.841-22.266h7.812v33.398h-4.973l-.148-23.49c-.371 2.412-1.021 6.327-1.948 11.745-.928 5.418-1.577 9.333-1.948 11.745h-5.047l-4.101-23.639-.148 23.639h-4.991zm26.705 0v-33.398h6.754v33.398h-6.754zm10.155 0v-33.417h4.861l7.329 17.479v-17.479h5.604v33.417h-4.676l-7.311-18.536v18.536h-5.808zm21.195 0v-33.398h13.935v4.639h-7.181v9.092h5.084v4.75h-5.084v10.279h7.181v4.639h-13.935zm22.531-19.501h1.93c.52 0 .965-.173 1.336-.52.371-.346.64-.785.807-1.317.167-.532.285-1.021.353-1.466.068-.445.102-.866.102-1.262s-.028-.804-.083-1.225c-.056-.421-.155-.888-.297-1.401s-.377-.934-.705-1.262c-.328-.328-.727-.492-1.197-.492h-2.245v8.943zm-6.754 19.501v-33.398h7.348c1.67 0 3.139.158 4.407.473 1.268.315 2.378.81 3.331 1.484.952.674 1.676 1.583 2.171 2.728.495 1.144.742 2.514.742 4.11 0 .693-.025 1.311-.074 1.855-.049.544-.164 1.166-.343 1.865-.179.699-.424 1.317-.733 1.855s-.755 1.067-1.336 1.586c-.581.52-1.268.952-2.06 1.299 2.004 6.358 3.748 11.739 5.232 16.143h-6.995l-3.822-15.382h-1.113v15.382h-6.754zm19.098-9.556l6.847-1.317c0 .68.012 1.28.037 1.8.025.52.09 1.085.195 1.698.105.612.247 1.113.427 1.503.179.39.433.717.761.983s.714.399 1.16.399c1.336 0 2.004-.854 2.004-2.561 0-2.338-1.317-4.663-3.952-6.977l-2.097-1.781c-.668-.557-1.2-1.021-1.596-1.392-.396-.371-.863-.872-1.401-1.503-.538-.631-.959-1.24-1.262-1.828-.303-.588-.563-1.296-.779-2.125-.216-.829-.325-1.707-.325-2.635 0-2.709.86-4.852 2.579-6.429 1.719-1.577 4.002-2.366 6.847-2.366 2.363 0 4.373.841 6.03 2.523 1.658 1.682 2.486 3.711 2.486 6.086l-.019.241v.557l-6.977.965c0-.136.009-.349.028-.64.019-.291.028-.529.028-.714 0-.445-.031-.872-.093-1.28-.062-.408-.164-.816-.306-1.225-.142-.408-.362-.733-.659-.974-.297-.241-.656-.362-1.076-.362-.742 0-1.299.291-1.67.872s-.557 1.268-.557 2.06c0 .693.108 1.342.325 1.948.216.606.544 1.172.983 1.698.439.526.844.962 1.215 1.308.371.346.866.77 1.484 1.271.618.501 1.058.869 1.317 1.104.952.841 1.757 1.63 2.412 2.366.656.736 1.274 1.568 1.855 2.496.581.928 1.017 1.93 1.308 3.006.291 1.076.436 2.239.436 3.488 0 2.338-.835 4.252-2.505 5.743-1.67 1.491-3.699 2.236-6.086 2.236-1.546 0-2.919-.285-4.119-.854-1.2-.569-2.168-1.342-2.904-2.319-.736-.977-1.302-2.06-1.698-3.247-.396-1.188-.625-2.462-.687-3.822z" fill="#fff"/></g></svg>